ply
format ascii 1.0
comment Created by Blender 2.77 (sub 0) - www.blender.org, source file: 'mobile_air_conditioner.blend'
element vertex 36
property float x
property float y
property float z
property float nx
property float ny
property float nz
element face 10
property list uchar uint vertex_indices
end_header
-0.537292 0.321616 0.188533 -0.999928 0.000000 -0.012009
-0.537292 -0.321616 0.188533 -0.999928 0.000000 -0.012009
-0.554860 -0.321616 1.651296 -0.999928 0.000000 -0.012009
-0.554860 0.321616 1.651296 -0.999928 0.000000 -0.012009
-0.554860 0.321616 1.651296 0.000000 1.000000 -0.000000
0.565725 0.321616 1.651296 0.000000 1.000000 -0.000000
0.548157 0.321616 0.188533 0.000000 1.000000 -0.000000
-0.537292 0.321616 0.188533 0.000000 1.000000 -0.000000
0.565725 0.321616 1.651296 0.999928 0.000000 -0.012009
0.565725 -0.321616 1.651296 0.999928 0.000000 -0.012009
0.548157 -0.321616 0.188533 0.999928 0.000000 -0.012009
0.548157 0.321616 0.188533 0.999928 0.000000 -0.012009
-0.537292 -0.321616 0.188533 0.000000 -1.000000 -0.000000
0.548157 -0.321616 0.188533 0.000000 -1.000000 -0.000000
0.565725 -0.321616 1.651296 0.000000 -1.000000 -0.000000
-0.554860 -0.321616 1.651296 0.000000 -1.000000 -0.000000
-0.378010 -0.321616 0.005061 0.000000 -1.000000 0.000000
0.388876 -0.321616 0.005061 0.000000 -1.000000 0.000000
0.565725 -0.321616 1.651296 -0.000000 0.000000 1.000000
0.565725 0.321616 1.651296 -0.000000 0.000000 1.000000
-0.554860 0.321616 1.651296 -0.000000 0.000000 1.000000
-0.554860 -0.321616 1.651296 -0.000000 0.000000 1.000000
-0.378010 -0.321616 0.005061 -0.000000 0.000000 -1.000000
-0.378010 0.321616 0.005061 -0.000000 0.000000 -1.000000
0.388876 0.321616 0.005061 -0.000000 0.000000 -1.000000
0.388876 -0.321616 0.005061 -0.000000 0.000000 -1.000000
0.388876 -0.321616 0.005061 0.755134 0.000000 -0.655570
0.388876 0.321616 0.005061 0.755134 0.000000 -0.655570
0.548157 0.321616 0.188533 0.755134 0.000000 -0.655570
0.548157 -0.321616 0.188533 0.755134 0.000000 -0.655570
-0.537292 -0.321616 0.188533 -0.755134 0.000000 -0.655570
-0.537292 0.321616 0.188533 -0.755134 0.000000 -0.655570
-0.378010 0.321616 0.005061 -0.755134 0.000000 -0.655570
-0.378010 -0.321616 0.005061 -0.755134 0.000000 -0.655570
0.388876 0.321616 0.005061 0.000000 1.000000 0.000000
-0.378010 0.321616 0.005061 0.000000 1.000000 0.000000
4 0 1 2 3
4 4 5 6 7
4 8 9 10 11
4 12 13 14 15
4 13 12 16 17
4 18 19 20 21
4 22 23 24 25
4 26 27 28 29
4 30 31 32 33
4 34 35 7 6
